<svg width="655" height="261" viewBox="0 0 655 261" fill="none" xmlns="http://www.w3.org/2000/svg">
<path id="signature" d="M3 136C9.59862 136 12.0681 133.624 17.2222 138.778C22.6921 144.248 27.1069 152.103 30.5556 159C30.7317 159.352 30.9057 159.707 31.0775 160.065M31.0775 160.065C36.7526 171.878 40 186.441 40 199.5V217C40 220.72 36.0108 221.288 33.2222 218.778C26.9406 213.124 22.2514 208.049 22 199C21.5807 183.904 24.4293 172.255 31.0775 160.065ZM31.0775 160.065C32.2478 157.919 33.5358 155.757 34.9444 153.556C39.4093 146.579 44.9363 131.181 54.5 129.056C64.5878 126.814 71.0153 129.95 73.7778 141C73.8922 141.458 74.0457 142.13 74.2233 142.971M74.2233 142.971C75.7955 150.422 79.2473 171.154 74 173.778C73.9136 173.821 70.7957 151.194 72.5 147.444C73.1395 146.037 73.7017 144.531 74.2233 142.971ZM74.2233 142.971C75.6975 138.561 76.8469 133.725 78.5 129.5C80.6929 123.896 84.2563 118.744 88.5 114.5C96.96 106.04 107.433 113.828 112 122C114.108 125.772 116.361 127.555 117.5 132.111C119.106 138.534 120.918 145.131 121 151.778C121.149 163.847 121 175.929 121 188C121 198.003 124.558 207.199 126.222 217C126.892 220.947 128.3 230.249 131.444 232.944C133.569 234.765 136.779 240.642 138 243.389C139.018 245.68 144.062 248.004 146 249.222C150.502 252.052 155.038 254.515 160 256.444C167.45 259.342 181.036 257.927 185 250M148 156C148 166.776 145.074 178.654 147.056 189.556C148.225 195.988 153.312 196 158.778 196C167.538 196 167 182.822 167 176.611C167 171.06 167.258 166.465 164.5 161.5C163.627 159.929 161.787 154.223 160 154C158.238 153.78 156.771 153.216 155.345 153.371M155.345 153.371C154.246 153.491 153.17 154.038 152 155.5C150.702 157.123 152.671 155.331 155.345 153.371ZM155.345 153.371C157.567 151.744 160.274 150 162 150M165 172C165 182.875 176.118 193.726 186.778 189.778C199.184 185.183 191 157.674 191 149.5C191 147.971 192.229 154.338 193 156.222C194.45 159.766 196.067 162.983 197.056 166.444C198.057 169.951 199.588 174.077 200.778 177.778C200.902 178.164 200.967 178.565 201 178.973M201 178.973C201.064 179.775 201 180.602 201 181.389V178.973ZM201 178.973V176C201 167.563 205.695 161.99 208 154.5C210.698 145.733 216.719 147.23 221 153.778C225.07 160.003 224 166.554 224 173.778C224 177.476 225.917 186.82 232 183.778C235.933 181.811 241.415 171.706 243.318 164.959M243.318 164.959C243.752 163.419 244 162.053 244 161C244 157.379 243 146.154 243 155.5C243 158.377 243.053 161.664 243.318 164.959ZM243.318 164.959C243.68 169.465 244.438 173.987 246 177.5C247.696 181.317 251.677 183.907 255.778 184C264.036 184.188 267.753 183.11 273.778 177.222C274.28 176.732 274.774 176.234 275.262 175.729M275.262 175.729C275.631 175.348 275.995 174.964 276.357 174.576M275.262 175.729C277.923 179.573 281.618 180.651 285.929 180.932M275.262 175.729C274.998 175.347 274.744 174.938 274.5 174.5C273.863 173.353 274.827 173.676 276.357 174.576M276.357 174.576C282.213 168.29 287.172 161.171 293 155C294.246 153.681 294.787 151.929 295.376 150.206M276.357 174.576C278.977 176.117 283.258 179.348 284 179.778C284.62 180.137 285.265 180.538 285.929 180.932M295.376 150.206C295.696 149.271 296.031 148.345 296.5 147.5C298.126 144.572 295 141.394 295 144.5C295 146.475 295.142 148.366 295.376 150.206ZM295.376 150.206C296.188 156.583 298.107 162.36 299.056 169C299.886 174.816 301.917 181 293.556 181C290.873 181 288.307 181.087 285.929 180.932M285.929 180.932C287.538 181.888 289.258 182.806 291 183C295.213 183.468 299.134 184 303.556 184C312.75 184 316.591 178.213 322 171C326.482 165.025 329.832 158.449 332.368 151.528M332.368 151.528C334.601 145.432 336.203 139.069 337.389 132.611C338.815 124.847 340.817 115.66 341 107.778C341.077 104.481 341.874 101.084 337.5 102.056C335.159 102.576 334.102 108.02 333.222 110C332.439 111.763 332.271 116.172 332.056 118.111C331.447 123.592 332 129.474 332 135C332 140.431 332.169 145.961 332.368 151.528ZM332.368 151.528C332.653 159.505 333 167.557 333 175.5C333 176.578 333.059 177.685 333.086 178.791M333.086 178.791C333.14 180.94 333.074 183.085 332.222 185C332.116 185.238 332.024 185.463 331.944 185.673M333.086 178.791C332.438 180.475 332 182.204 332 184C332 184.648 331.978 185.204 331.944 185.673M333.086 178.791C334.42 175.326 336.644 172.052 337.778 168.778C339.711 163.194 345.311 159.862 350 157.778C357.728 154.343 360.099 160.32 362 166.5C364.301 173.979 359.71 182.163 369.056 184.5C381.295 187.56 386.68 182.641 392 172M331.944 185.673C330.998 188.146 331.726 188.62 331.944 185.673ZM450 82V181.077M450 181.077C449.351 184.436 450 188.499 450 192.5M450 181.077C450.517 178.403 451.856 176.175 455 174.778C466.836 169.517 477.789 178.372 488 183.778C495.004 187.486 502.766 188.774 510.5 187.056C518.302 185.322 523.798 178.302 528.5 172.556C532.86 167.227 534.968 157.866 535.778 151.222C537.335 138.45 538.867 125.686 539 112.778C539.268 86.7609 542.732 56.0767 528.444 32.9444C517.364 15.0048 502.207 3 480.778 3C468.472 3 465 14.1374 465 24.5556C465 35.995 463.748 51.6189 470 61.7778C476.225 71.8928 487.539 79.2696 498 84.5C515.199 93.0997 521.387 76.8835 525.778 63.2222C527.383 58.2292 530.172 32.3907 523 30M450 181.077V192.5M450 192.5V199.444M569 140C568.656 142.752 558.176 149.503 555.556 151C550.572 153.848 552 164.232 552 169C552 176.794 559.975 179 566.5 179C573.845 179 574.889 165.833 575.004 157.386M575.004 157.386C575.035 155.149 575 153.243 575 152V142C575 137.446 574 143.875 574 145.5V153.5C574 154.887 574.502 156.13 575.004 157.386ZM575.004 157.386C575.466 158.54 575.928 159.705 576 161C576.254 165.57 583.022 170.656 587.056 172C590.395 173.113 591.764 174 595.5 174C599.397 174 600.772 172.016 604 170.222C612.426 165.541 616.102 156.416 620.5 148.5C620.968 147.658 621.41 146.823 621.824 145.992M621.824 145.992C624.469 140.688 626 135.515 626 129.444C626 120.229 621 130.571 621 134.5C621 138.717 621.055 142.335 621.824 145.992ZM621.824 145.992C622.237 147.951 622.854 149.921 623.778 152C626.32 157.72 627 164.172 627 170.444C627 172.062 626.665 173.396 626.073 174.486M626.073 174.486C623.267 179.645 614.681 179.337 608.444 177.778C606.694 177.34 601.806 173.638 604.222 171.222C605.921 169.524 615.907 172.918 618 173.5C620.502 174.195 623.249 174.446 626.073 174.486ZM626.073 174.486C630.925 174.555 636.003 174 640.444 174C645.838 174 650.391 167.826 652 163M240 136C242.406 138.707 238.809 140.243 239 137C239.112 135.092 243.116 133.826 241 137" stroke="black" stroke-width="5" stroke-linecap="round"/>
</svg>
